# xmcd
#
# Track frame offsets:
#	150
#	15664
#	30794
#	45345
#	64121
#	81202
#	95354
#	110492
#	132497
#	156263
#	171091
#	186771
#	203738
#	219673
#	233284
#	247148
#	259503
#	277739
#	293358
#	305848
#	322453
#
# Disc length: 4569 seconds
#
# Revision: 0
# Processed by: cddbd v1.5.2PL0 Copyright (c) Steve Scherf et al.
# Submitted via: EZCDAudioConverter 8.5.0.1
#
DISCID=1e11d715
DTITLE=Various Artist - Jon Savage's Rock Dreams On 45 (1969-1971) 1/2
DYEAR=1900
DGENRE=
TTITLE0=Spooky Tooth - Waitin' For The Wind
TTITLE1=The Byrds - Bad Night At The Whiskey
TTITLE2=Dave Davies - Creeping Jean
TTITLE3=Man - Sudden Life
TTITLE4=The Youngbloods - Darkness, Darkness
TTITLE5=Free - Broad Daylight
TTITLE6=The Kinks - King Kong
TTITLE7=Blossom Toes - Peace Loving Man
TTITLE8=Leviathan - The War Machine
TTITLE9=Steamhammer - Junior's Wailing
TTITLE10=Marsha Hunt - Walk On Gilded Splinters
TTITLE11=The Idle Race - Days Of The Broken Arrows
TTITLE12=Shy Limbs - Reputation
TTITLE13=Brute Force - Nobody Knows
TTITLE14=Jeff Beck Group - Plynth (Water Down The Drain)
TTITLE15=Kaleidoscope - Lie To Me
TTITLE16=The Stooges - 1969
TTITLE17=The Open Mind - Magic Potion
TTITLE18=The James Gang - Funk #48
TTITLE19=Mott The Hoople - Rock and Roll Queen
TTITLE20=Procol Harum - The Devil Came From Kansas
EXTD=
EXTT0=
EXTT1=
EXTT2=
EXTT3=
EXTT4=
EXTT5=
EXTT6=
EXTT7=
EXTT8=
EXTT9=
EXTT10=
EXTT11=
EXTT12=
EXTT13=
EXTT14=
EXTT15=
EXTT16=
EXTT17=
EXTT18=
EXTT19=
EXTT20=
PLAYORDER=
